<svg xmlns="http://www.w3.org/2000/svg" width="210mm" height="297mm" viewBox="0 0 794 1123">
  <rect width="794" height="1123" fill="#ffffff"/>
  <style>
    text { font-family: 'Helvetica','Arial',sans-serif; fill:#1a1a1a; }
    .nome { font-size:22px; font-weight:bold; fill:#0b3d66; }
    .small { font-size:12px; fill:#444; }
    .lbl { font-size:11px; fill:#888; letter-spacing:1px; }
    .h { font-size:13px; font-weight:bold; fill:#ffffff; }
    .cell { font-size:13px; }
    .r { text-anchor:end; }
    .tt { font-size:13px; font-weight:bold; }
  </style>

  <!-- Letterhead do emitente -->
  <text x="60" y="80" class="nome">FinDoc Serviços, Lda.</text>
  <text x="60" y="104" class="small">Avenida da Liberdade, 200</text>
  <text x="60" y="122" class="small">1250-096 Lisboa</text>
  <text x="60" y="140" class="small">Contribuinte n.º 501234567</text>

  <!-- Bloco do documento (direita) -->
  <rect x="500" y="55" width="234" height="96" fill="#0b3d66"/>
  <text x="617" y="92" text-anchor="middle" style="font-size:26px;font-weight:bold;fill:#ffffff;">FATURA</text>
  <text x="617" y="118" text-anchor="middle" style="font-size:13px;fill:#cfe0ee;">N.º FT 2026/00108</text>
  <text x="617" y="138" text-anchor="middle" style="font-size:12px;fill:#cfe0ee;">Data: 2026-07-18   Venc.: 2026-08-17</text>

  <!-- Destinatário (sem rótulo de papel) -->
  <text x="60" y="215" class="lbl">EXMO(S). SENHOR(ES)</text>
  <text x="60" y="240" style="font-size:16px;font-weight:bold;">Construções Alves &amp; Filhos, Lda.</text>
  <text x="60" y="262" class="small">Rua do Comércio, 45</text>
  <text x="60" y="280" class="small">4000-100 Porto</text>
  <text x="60" y="298" class="small">Contribuinte n.º 503888999</text>

  <!-- Tabela de linhas -->
  <rect x="60" y="340" width="674" height="30" fill="#0b3d66"/>
  <text x="72" y="360" class="h">Descrição</text>
  <text x="512" y="360" class="h r">Qt.</text>
  <text x="620" y="360" class="h r">Preço</text>
  <text x="722" y="360" class="h r">Total</text>

  <text x="72" y="396" class="cell">Processamento documental (avença mensal)</text>
  <text x="512" y="396" class="cell r">1</text>
  <text x="620" y="396" class="cell r">450,00</text>
  <text x="722" y="396" class="cell r">450,00</text>
  <line x1="60" y1="410" x2="734" y2="410" stroke="#dddddd"/>

  <text x="72" y="432" class="cell">Consultoria de arquivo digital</text>
  <text x="512" y="432" class="cell r">8</text>
  <text x="620" y="432" class="cell r">35,00</text>
  <text x="722" y="432" class="cell r">280,00</text>
  <line x1="60" y1="446" x2="734" y2="446" stroke="#dddddd"/>

  <text x="72" y="468" class="cell">Licença de utilizador adicional</text>
  <text x="512" y="468" class="cell r">3</text>
  <text x="620" y="468" class="cell r">15,00</text>
  <text x="722" y="468" class="cell r">45,00</text>
  <line x1="60" y1="482" x2="734" y2="482" stroke="#dddddd"/>

  <!-- Totais -->
  <text x="620" y="522" class="cell r">Subtotal:</text>
  <text x="722" y="522" class="cell r">775,00</text>
  <text x="620" y="546" class="cell r">IVA (23%):</text>
  <text x="722" y="546" class="cell r">178,25</text>
  <rect x="512" y="560" width="222" height="34" fill="#eef3f8"/>
  <text x="620" y="583" class="tt r">TOTAL:</text>
  <text x="722" y="583" class="tt r">953,25</text>

  <!-- Rodapé -->
  <line x1="60" y1="1000" x2="734" y2="1000" stroke="#cccccc"/>
  <text x="60" y="1024" class="small">Pagamento por transferência — IBAN PT50 0002 0123 9999 8888 7777 6</text>
  <text x="60" y="1042" class="small">Documento processado por computador. Obrigado pela preferência.</text>
</svg>
